<svg xmlns="http://www.w3.org/2000/svg" viewBox="260 290 510 360" fill-rule="evenodd">
  <style>
    .ink { fill: #1f2a3c; }
    @media (prefers-color-scheme: dark) {
      .ink { fill: #e8e8e6; }
    }
  </style>
  <path fill="#2d7952" d="M709.75 636.38L657.25 636.38L654.88 634L654.88 466.25L703.62 410.25L710.5 404.38L711.12 497.5L712.88 522.75L711.38 534.5L711.62 634.5L709.75 636.38ZM643 636.38L593.75 636.38L590.25 636.12L588.62 634.5L588.62 491L602.88 475L606.75 472.38L643.25 472.38L645.38 474.25L645.38 632.5L644.62 635.5L643 636.38ZM576 636.38L523.25 636.38L521.12 634.5L521.38 549L527 542.12L537.5 533.38L576 533.12L577.88 534.5L578.12 634.5L576 636.38ZM498 636.62L458.5 636.38L456.38 635.25L456.12 586L458.5 583.88L486 582.62L508.5 560.62L510.75 559.88L511.88 567L512.38 632.25L509.5 635.62L498 636.62Z" />
  <path fill="#46926b" d="M657 518.62L655.38 517.25L655.62 465.25L704.12 410.25L708.75 406.88L710.12 409.5L710.88 420L710.62 480.25L694.5 484.88L685 489.62L676.38 497.25L657 518.62ZM592 569.12L589.38 567.5L589.12 516L590.88 488.5L605.75 473.12L643.75 473.12L645.12 476L644.12 529.5L633.5 535.88L607.5 560.88L592 569.12ZM523.25 585.88L521.62 584.5L521.88 549L523.75 545.88L538.5 533.62L573.75 533.62L575.88 535L577.12 556L576.25 573.88L569.75 573.88L553.25 568.88L544.25 568.88L537.25 572.38L523.25 585.88ZM486.25 624.88L466.25 620.62L458.25 622.12L456.62 621.25L456.88 585.75L458.75 584.38L486 583.12L510.25 560.62L511.38 567L511.62 610.75L499.5 619.88L486.25 624.88Z" />
  <path class="ink" d="M443 635.88L271.5 635.88L269.88 634.75L271.88 625.5L281.88 603.25L292.38 586L305.62 568L347.12 523.5L430.62 439L436.38 431L440.12 422L442.38 410L442.12 398.25L439.62 388L435.12 378.5L425.5 368.12L418.5 363.38L409.5 359.88L400.25 358.12L390 358.38L379 361.12L368.5 366.88L361.88 372.75L356.12 380.5L350.38 394L347.25 419.62L301 420.38L293.5 420.12L291.12 418.75L291.38 401.75L294.62 383.25L301.38 364.75L309.38 350.25L319.38 337.75L335.75 322.88L352 313.38L370.25 306.88L388 304.12L412 304.88L433 310.12L451.75 319.38L469 332.88L483.12 349L492.38 365.5L498.88 384.75L501.38 405L499.62 426.25L494.62 444L485.12 463L467.62 485L380.62 573.25L382 574.62L387.25 574.88L443 574.88L444.62 576L444.88 634L443 635.88ZM494.75 549.88L486.25 549.12L485.12 547.5L486.12 541.5L569.88 308.75L572.25 307.12L581.25 306.88L640.75 307.38L677.38 406L678.38 409.25L677.38 413.75L643.38 452.5L639.5 456.38L637.25 456.88L632.62 448L608.12 380.75L605.25 378.12L603.12 381.5L557.62 514.5L555.5 515.88L529.75 516.62L494.75 549.88ZM751 635.88L713 635.88L711.12 634.25L710.88 534.5L712 523.12L719.62 540.25L751.38 624.25L754.12 634.25L751 635.88Z" />
</svg>
