<svg xmlns="http://www.w3.org/2000/svg" width="1024" height="1024" viewBox="0 0 1024 1024" fill-rule="evenodd">
  <path fill="#2d7952" d="M709.75 636.38L657.25 636.38L654.88 634L654.88 466.25L703.62 410.25L710.5 404.38L711.12 497.5L712.88 522.75L711.38 534.5L711.62 634.5L709.75 636.38ZM643 636.38L593.75 636.38L590.25 636.12L588.62 634.5L588.62 491L602.88 475L606.75 472.38L643.25 472.38L645.38 474.25L645.38 632.5L644.62 635.5L643 636.38ZM576 636.38L523.25 636.38L521.12 634.5L521.38 549L527 542.12L537.5 533.38L576 533.12L577.88 534.5L578.12 634.5L576 636.38ZM498 636.62L458.5 636.38L456.38 635.25L456.12 586L458.5 583.88L486 582.62L508.5 560.62L510.75 559.88L511.88 567L512.38 632.25L509.5 635.62L498 636.62Z"/>
  <path fill="#46926b" d="M657 518.62L655.38 517.25L655.62 465.25L704.12 410.25L708.75 406.88L710.12 409.5L710.88 420L710.62 480.25L694.5 484.88L685 489.62L676.38 497.25L657 518.62ZM592 569.12L589.38 567.5L589.12 516L590.88 488.5L605.75 473.12L643.75 473.12L645.12 476L644.12 529.5L633.5 535.88L607.5 560.88L592 569.12ZM523.25 585.88L521.62 584.5L521.88 549L523.75 545.88L538.5 533.62L573.75 533.62L575.88 535L577.12 556L576.25 573.88L569.75 573.88L553.25 568.88L544.25 568.88L537.25 572.38L523.25 585.88ZM486.25 624.88L466.25 620.62L458.25 622.12L456.62 621.25L456.88 585.75L458.75 584.38L486 583.12L510.25 560.62L511.38 567L511.62 610.75L499.5 619.88L486.25 624.88Z"/>
  <path fill="#e8e8e6" d="M443 635.88L271.5 635.88L269.88 634.75L271.88 625.5L281.88 603.25L292.38 586L305.62 568L347.12 523.5L430.62 439L436.38 431L440.12 422L442.38 410L442.12 398.25L439.62 388L435.12 378.5L425.5 368.12L418.5 363.38L409.5 359.88L400.25 358.12L390 358.38L379 361.12L368.5 366.88L361.88 372.75L356.12 380.5L350.38 394L347.25 419.62L301 420.38L293.5 420.12L291.12 418.75L291.38 401.75L294.62 383.25L301.38 364.75L309.38 350.25L319.38 337.75L335.75 322.88L352 313.38L370.25 306.88L388 304.12L412 304.88L433 310.12L451.75 319.38L469 332.88L483.12 349L492.38 365.5L498.88 384.75L501.38 405L499.62 426.25L494.62 444L485.12 463L467.62 485L380.62 573.25L382 574.62L387.25 574.88L443 574.88L444.62 576L444.88 634L443 635.88ZM494.75 549.88L486.25 549.12L485.12 547.5L486.12 541.5L569.88 308.75L572.25 307.12L581.25 306.88L640.75 307.38L677.38 406L678.38 409.25L677.38 413.75L643.38 452.5L639.5 456.38L637.25 456.88L632.62 448L608.12 380.75L605.25 378.12L603.12 381.5L557.62 514.5L555.5 515.88L529.75 516.62L494.75 549.88ZM751 635.88L713 635.88L711.12 634.25L710.88 534.5L712 523.12L719.62 540.25L751.38 624.25L754.12 634.25L751 635.88Z"/>
  <path fill="#e8e8e6" d="M289.196 686.244V688.796H280.66V717.0H277.58V688.796H269.0V686.244ZM323.58466666666664 717.0 315.97266666666667 704.152H310.2966666666667V717.0H307.21666666666664V686.244H316.45666666666665Q321.6046666666667 686.244 324.26666666666665 688.7080000000001Q326.9286666666667 691.172 326.9286666666667 695.176Q326.9286666666667 698.52 325.0146666666667 700.874Q323.10066666666665 703.228 319.36066666666665 703.932L327.28066666666666 717.0ZM310.2966666666667 701.644H316.50066666666663Q320.10866666666664 701.644 321.93466666666666 699.884Q323.7606666666667 698.124 323.7606666666667 695.176Q323.7606666666667 692.14 322.0006666666667 690.49Q320.24066666666664 688.84 316.45666666666665 688.84H310.2966666666667ZM364.00133333333326 709.696H350.0093333333333L347.3253333333333 717.0H344.0693333333333L355.2893333333333 686.64H358.7653333333333L369.94133333333326 717.0H366.6853333333333ZM363.0773333333333 707.144 357.0053333333333 690.512 350.9333333333333 707.144ZM413.39399999999995 701.688Q413.39399999999995 706.44 411.45799999999997 709.894Q409.52199999999993 713.348 405.86999999999995 715.174Q402.21799999999996 717.0 397.1139999999999 717.0H388.0059999999999V686.244H397.1139999999999Q402.21799999999996 686.244 405.86999999999995 688.0920000000001Q409.52199999999993 689.94 411.45799999999997 693.416Q413.39399999999995 696.892 413.39399999999995 701.688ZM410.2699999999999 701.688Q410.2699999999999 695.616 406.90399999999994 692.206Q403.53799999999995 688.796 397.1139999999999 688.796H391.08599999999996V714.448H397.1139999999999Q403.53799999999995 714.448 406.90399999999994 711.082Q410.2699999999999 707.716 410.2699999999999 701.688ZM435.28666666666663 686.244V717.0H432.2066666666666V686.244ZM478.60733333333326 717.0H475.5273333333333L458.4993333333333 691.128V717.0H455.41933333333327V686.244H458.4993333333333L475.5273333333333 712.072V686.244H478.60733333333326ZM522.9399999999999 695.22Q521.6199999999999 692.184 518.9139999999999 690.4459999999999Q516.2079999999999 688.708 512.5559999999999 688.708Q509.1239999999999 688.708 506.3959999999999 690.2919999999999Q503.6679999999999 691.876 502.0839999999999 694.8019999999999Q500.4999999999999 697.728 500.4999999999999 701.6Q500.4999999999999 705.472 502.0839999999999 708.4200000000001Q503.6679999999999 711.368 506.3959999999999 712.952Q509.1239999999999 714.536 512.5559999999999 714.536Q515.7679999999999 714.536 518.3419999999999 713.15Q520.9159999999999 711.764 522.478 709.19Q524.04 706.616 524.2599999999999 703.184H511.3239999999999V700.676H527.516V702.92Q527.2959999999999 706.968 525.3159999999999 710.246Q523.3359999999999 713.524 520.0139999999999 715.4159999999999Q516.6919999999999 717.308 512.5559999999999 717.308Q508.2879999999999 717.308 504.8119999999999 715.306Q501.3359999999999 713.304 499.33399999999995 709.718Q497.33199999999994 706.132 497.33199999999994 701.6Q497.33199999999994 697.068 499.33399999999995 693.482Q501.3359999999999 689.896 504.8119999999999 687.894Q508.2879999999999 685.892 512.5559999999999 685.892Q517.4839999999999 685.892 521.1799999999998 688.356Q524.8759999999999 690.82 526.5479999999999 695.22ZM589.4733333333332 686.244V688.796H580.9373333333333V717.0H577.8573333333333V688.796H569.2773333333333V686.244ZM606.0859999999999 701.6Q606.0859999999999 697.068 608.088 693.482Q610.0899999999999 689.896 613.5659999999999 687.894Q617.0419999999999 685.892 621.31 685.892Q625.622 685.892 629.098 687.894Q632.574 689.896 634.5539999999999 693.482Q636.5339999999999 697.068 636.5339999999999 701.6Q636.5339999999999 706.132 634.5539999999999 709.718Q632.574 713.304 629.098 715.306Q625.622 717.308 621.31 717.308Q617.0419999999999 717.308 613.5659999999999 715.306Q610.0899999999999 713.304 608.088 709.718Q606.0859999999999 706.132 606.0859999999999 701.6ZM633.366 701.6Q633.366 697.684 631.7819999999999 694.736Q630.198 691.788 627.47 690.204Q624.742 688.62 621.31 688.62Q617.8779999999999 688.62 615.1499999999999 690.204Q612.4219999999999 691.788 610.838 694.736Q609.2539999999999 697.684 609.2539999999999 701.6Q609.2539999999999 705.516 610.838 708.486Q612.4219999999999 711.456 615.1499999999999 713.04Q617.8779999999999 714.624 621.31 714.624Q624.742 714.624 627.47 713.04Q630.198 711.456 631.7819999999999 708.486Q633.366 705.516 633.366 701.6ZM653.8946666666666 701.6Q653.8946666666666 697.068 655.8966666666665 693.482Q657.8986666666666 689.896 661.3746666666666 687.894Q664.8506666666666 685.892 669.1186666666666 685.892Q673.4306666666666 685.892 676.9066666666666 687.894Q680.3826666666666 689.896 682.3626666666667 693.482Q684.3426666666666 697.068 684.3426666666666 701.6Q684.3426666666666 706.132 682.3626666666667 709.718Q680.3826666666666 713.304 676.9066666666666 715.306Q673.4306666666666 717.308 669.1186666666666 717.308Q664.8506666666666 717.308 661.3746666666666 715.306Q657.8986666666666 713.304 655.8966666666665 709.718Q653.8946666666666 706.132 653.8946666666666 701.6ZM681.1746666666667 701.6Q681.1746666666667 697.684 679.5906666666667 694.736Q678.0066666666667 691.788 675.2786666666666 690.204Q672.5506666666666 688.62 669.1186666666666 688.62Q665.6866666666666 688.62 662.9586666666667 690.204Q660.2306666666666 691.788 658.6466666666665 694.736Q657.0626666666666 697.684 657.0626666666666 701.6Q657.0626666666666 705.516 658.6466666666665 708.486Q660.2306666666666 711.456 662.9586666666667 713.04Q665.6866666666666 714.624 669.1186666666666 714.624Q672.5506666666666 714.624 675.2786666666666 713.04Q678.0066666666667 711.456 679.5906666666667 708.486Q681.1746666666667 705.516 681.1746666666667 701.6ZM706.1913333333333 714.492H717.2353333333333V717.0H703.1113333333333V686.244H706.1913333333333ZM733.716 709.08H736.972Q737.192 711.324 738.952 713.018Q740.712 714.712 744.0999999999999 714.712Q747.2239999999999 714.712 749.05 713.106Q750.876 711.5 750.876 709.036Q750.876 707.056 749.864 705.846Q748.852 704.636 747.356 704.0419999999999Q745.8599999999999 703.448 743.2199999999999 702.744Q740.14 701.908 738.336 701.116Q736.5319999999999 700.324 735.2559999999999 698.652Q733.9799999999999 696.98 733.9799999999999 694.12Q733.9799999999999 691.744 735.212 689.874Q736.444 688.004 738.6879999999999 686.9480000000001Q740.9319999999999 685.892 743.8359999999999 685.892Q748.1039999999999 685.892 750.722 687.982Q753.3399999999999 690.072 753.736 693.372H750.3919999999999Q750.084 691.48 748.324 690.0060000000001Q746.564 688.532 743.572 688.532Q740.8 688.532 738.952 690.0060000000001Q737.1039999999999 691.48 737.1039999999999 694.032Q737.1039999999999 695.968 738.116 697.156Q739.1279999999999 698.344 740.646 698.96Q742.164 699.576 744.76 700.28Q747.752 701.116 749.5999999999999 701.9300000000001Q751.448 702.744 752.7239999999999 704.4159999999999Q754.0 706.088 754.0 708.904Q754.0 711.06 752.856 712.996Q751.712 714.932 749.468 716.12Q747.2239999999999 717.308 744.0999999999999 717.308Q741.064 717.308 738.7539999999999 716.252Q736.444 715.196 735.124 713.3040000000001Q733.804 711.412 733.716 709.08Z"/>
</svg>
